<?xml version="1.0" encoding="UTF-8"?>
<svg xmlns="http://www.w3.org/2000/svg" xmlns:xlink="http://www.w3.org/1999/xlink" width="37px" height="37px" viewBox="0 0 37 37" version="1.1">
<g id="surface1">
<path style=" stroke:none;fill-rule:evenodd;fill:rgb(10.588235%,12.156863%,13.72549%);fill-opacity:1;" d="M 18.5 0 C 8.277344 0 0 8.277344 0 18.5 C 0 26.6875 5.296875 33.601562 12.648438 36.050781 C 13.574219 36.214844 13.921875 35.660156 13.921875 35.171875 C 13.921875 34.734375 13.898438 33.277344 13.898438 31.726562 C 9.25 32.582031 8.046875 30.59375 7.675781 29.554688 C 7.46875 29.023438 6.566406 27.378906 5.78125 26.941406 C 5.132812 26.59375 4.207031 25.738281 5.757812 25.714844 C 7.214844 25.691406 8.253906 27.054688 8.601562 27.609375 C 10.265625 30.410156 12.925781 29.625 13.992188 29.136719 C 14.152344 27.933594 14.636719 27.125 15.171875 26.664062 C 11.054688 26.199219 6.753906 24.605469 6.753906 17.527344 C 6.753906 15.515625 7.46875 13.851562 8.648438 12.558594 C 8.464844 12.09375 7.816406 10.199219 8.832031 7.65625 C 8.832031 7.65625 10.382812 7.167969 13.921875 9.550781 C 15.402344 9.132812 16.972656 8.925781 18.546875 8.925781 C 20.117188 8.925781 21.691406 9.132812 23.171875 9.550781 C 26.710938 7.144531 28.257812 7.65625 28.257812 7.65625 C 29.277344 10.199219 28.628906 12.09375 28.445312 12.558594 C 29.625 13.851562 30.339844 15.492188 30.339844 17.527344 C 30.339844 24.628906 26.015625 26.199219 21.898438 26.664062 C 22.570312 27.242188 23.148438 28.351562 23.148438 30.085938 C 23.148438 32.558594 23.125 34.546875 23.125 35.171875 C 23.125 35.660156 23.472656 36.238281 24.398438 36.050781 C 31.703125 33.601562 37 26.664062 37 18.5 C 37 8.277344 28.722656 0 18.5 0 Z M 18.5 0 "/>
</g>
</svg>
